<?xml version="1.0" encoding="iso-8859-1"?>
<!-- Generator: Adobe Illustrator 19.0.0, SVG Export Plug-In . SVG Version: 6.00 Build 0)  -->
<svg version="1.1" id="Layer_1" xmlns="http://www.w3.org/2000/svg" xmlns:xlink="http://www.w3.org/1999/xlink" x="0px" y="0px"
	 viewBox="0 0 512 512" style="enable-background:new 0 0 512 512;" xml:space="preserve">
<path style="fill:#8AD5DD;" d="M255.784,309.276C441.816,309.276,512,159.092,512,159.092S442.24,8.908,256.216,8.908
	C70.184,8.908,0,159.092,0,159.092S69.76,309.276,255.784,309.276z M256,45.9c62.512,0,113.192,50.68,113.192,113.192
	S318.512,272.284,256,272.284s-113.192-50.68-113.192-113.192S193.488,45.9,256,45.9z"/>
<path style="fill:#2D2D2D;" d="M256,272.284c62.512,0,113.192-50.68,113.192-113.192S318.512,45.9,256,45.9
	S142.808,96.58,142.808,159.092S193.488,272.284,256,272.284z M256,63.772c52.64,0,95.32,42.672,95.32,95.32
	c0,52.64-42.672,95.32-95.32,95.32c-52.64,0-95.32-42.672-95.32-95.32C160.68,106.452,203.36,63.772,256,63.772z"/>
<path style="fill:#DB2B42;" d="M256,254.412c52.64,0,95.32-42.672,95.32-95.32c0-52.64-42.672-95.32-95.32-95.32
	c-52.64,0-95.32,42.672-95.32,95.32C160.68,211.732,203.36,254.412,256,254.412z M256,94.556c35.64,0,64.536,28.896,64.536,64.536
	S291.64,223.628,256,223.628s-64.536-28.896-64.536-64.536C191.464,123.452,220.36,94.556,256,94.556z"/>
<path style="fill:#FFFFFF;" d="M256,223.628c35.64,0,64.536-28.896,64.536-64.536S291.64,94.556,256,94.556
	s-64.536,28.896-64.536,64.536C191.464,194.732,220.36,223.628,256,223.628z M256,127.052c17.696,0,32.04,14.344,32.04,32.04
	s-14.344,32.04-32.04,32.04s-32.04-14.344-32.04-32.04C223.96,141.396,238.304,127.052,256,127.052z"/>
<circle style="fill:#2D2D2D;" cx="256" cy="159.092" r="32"/>
<g>
	<polygon style="fill:#DB2B42;" points="110.648,500.964 110.648,375.148 86.248,375.148 52.96,390.636 57.8,412.7 81.8,401.276 
		82.192,401.276 82.192,500.964 	"/>
	<path style="fill:#DB2B42;" d="M225.616,437.476c0-34.456-13.16-64.456-46.848-64.456c-32.52,0-48,28.84-48,65.232
		c0.192,35.608,14.52,64.84,47.04,64.84C209.936,503.092,225.616,476.38,225.616,437.476z M160.384,438.252
		c-0.192-29.232,7.16-42.976,18.008-42.976c11.808,0,17.808,14.704,17.808,42.584c0,28.648-6.2,42.976-17.616,42.976
		C167.152,480.836,160.192,467.092,160.384,438.252z"/>
	<path style="fill:#DB2B42;" d="M333.04,437.476c0-34.456-13.16-64.456-46.848-64.456c-32.52,0-48,28.84-48,65.232
		c0.192,35.608,14.52,64.84,47.04,64.84C317.36,503.092,333.04,476.38,333.04,437.476z M267.808,438.252
		c-0.192-29.232,7.16-42.976,18.008-42.976c11.808,0,17.808,14.704,17.808,42.584c0,28.648-6.2,42.976-17.616,42.976
		C274.576,480.836,267.616,467.092,267.808,438.252z"/>
	<path style="fill:#DB2B42;" d="M413.56,426.052l43.168-55.552h-36.2l-29.616,43.352c-2.896,4.656-6,9.296-8.904,14.328h-0.584
		V370.5H352.2v130.464h29.224V458.38l11.232-13.744l31.936,56.328h34.448L413.56,426.052z"/>
</g>
<g>
</g>
<g>
</g>
<g>
</g>
<g>
</g>
<g>
</g>
<g>
</g>
<g>
</g>
<g>
</g>
<g>
</g>
<g>
</g>
<g>
</g>
<g>
</g>
<g>
</g>
<g>
</g>
<g>
</g>
</svg>
